<svg width="64" height="63" viewBox="0 0 64 63" fill="none" xmlns="http://www.w3.org/2000/svg">
                           <path d="M5.33406 31.5001C5.33334 26.5707 6.7429 21.7407 9.40132 17.5632C12.0598 13.3857 15.8596 10.0297 20.3657 7.87934C24.8718 5.72899 29.902 4.87128 34.8803 5.40444C39.8586 5.93759 44.5838 7.84006 48.5147 10.894H44.4583C44.1069 10.8973 43.7711 11.0371 43.5238 11.2828C43.2766 11.5286 43.1378 11.8605 43.1378 12.2064C43.1378 12.5524 43.2766 12.8843 43.5238 13.1301C43.7711 13.3758 44.1069 13.5156 44.4583 13.5189H52.0007C52.3543 13.5189 52.6935 13.3806 52.9435 13.1345C53.1936 12.8883 53.3341 12.5545 53.3341 12.2064V4.78163C53.3358 4.6082 53.3025 4.43616 53.2363 4.27545C53.1701 4.11474 53.0721 3.96855 52.9481 3.84532C52.8242 3.72209 52.6766 3.62427 52.514 3.55751C52.3514 3.49075 52.1769 3.45638 52.0007 3.45638C51.8246 3.45638 51.6501 3.49075 51.4875 3.55751C51.3249 3.62427 51.1773 3.72209 51.0533 3.84532C50.9294 3.96855 50.8314 4.11474 50.7652 4.27545C50.699 4.43616 50.6657 4.6082 50.6674 4.78163V9.22607C44.8535 4.50493 37.4165 2.16785 29.899 2.69954C22.3815 3.23124 15.3604 6.59091 10.2918 12.0817C5.22327 17.5726 2.49625 24.7732 2.67635 32.1902C2.85646 39.6072 5.92989 46.6713 11.2592 51.9175C11.3825 52.0417 11.5295 52.1405 11.6919 52.2084C11.8543 52.2762 12.0287 52.3116 12.2051 52.3126C12.3814 52.3136 12.5563 52.2802 12.7194 52.2142C12.8825 52.1482 13.0308 52.051 13.1555 51.9283C13.2802 51.8055 13.3789 51.6596 13.446 51.499C13.513 51.3384 13.547 51.1663 13.546 50.9927C13.5449 50.8191 13.5089 50.6474 13.44 50.4875C13.3711 50.3277 13.2707 50.1829 13.1446 50.0616C10.6606 47.6297 8.69126 44.737 7.35059 41.551C6.00992 38.3649 5.32452 34.9487 5.33406 31.5001ZM20.3471 55.1193C19.5867 54.7549 18.8442 54.3555 18.1221 53.9222C17.8202 53.7408 17.4576 53.6849 17.1139 53.7667C16.7702 53.8486 16.4736 54.0615 16.2894 54.3586C16.1051 54.6557 16.0483 55.0126 16.1315 55.351C16.2146 55.6893 16.4309 55.9812 16.7327 56.1626C17.5274 56.6398 18.3447 57.0795 19.1819 57.4802C19.3394 57.5555 19.5104 57.5996 19.6852 57.6098C19.86 57.6201 20.0351 57.5964 20.2006 57.54C20.366 57.4837 20.5186 57.3958 20.6495 57.2814C20.7805 57.167 20.8873 57.0283 20.9638 56.8733C21.0403 56.7183 21.0851 56.55 21.0955 56.3779C21.1059 56.2059 21.0818 56.0335 21.0246 55.8706C20.9674 55.7077 20.8781 55.5576 20.7619 55.4286C20.6457 55.2997 20.5048 55.1946 20.3473 55.1193H20.3471ZM56.0066 20.053C56.0829 20.2081 56.1895 20.3469 56.3203 20.4614C56.4512 20.576 56.6036 20.6641 56.769 20.7206C56.9344 20.7772 57.1095 20.8011 57.2843 20.7911C57.4591 20.781 57.6302 20.7372 57.7878 20.662C57.9454 20.5869 58.0864 20.4819 58.2028 20.3532C58.3192 20.2244 58.4086 20.0743 58.4661 19.9115C58.5235 19.7487 58.5479 19.5763 58.5376 19.4042C58.5274 19.2321 58.4829 19.0637 58.4066 18.9086C58.0008 18.0843 57.5554 17.2795 57.0719 16.4969C56.9809 16.3496 56.8613 16.2214 56.72 16.1197C56.5786 16.0179 56.4183 15.9445 56.2482 15.9037C55.9045 15.8213 55.5417 15.8767 55.2396 16.0576C54.9374 16.2386 54.7206 16.5303 54.6369 16.8685C54.5532 17.2068 54.6095 17.5639 54.7933 17.8614C55.2326 18.5726 55.6375 19.304 56.0066 20.053ZM35.1641 57.5662C34.3223 57.6646 33.4707 57.7232 32.6322 57.7431C32.285 57.7562 31.9567 57.9022 31.7172 58.15C31.4777 58.3978 31.346 58.7279 31.35 59.0699C31.354 59.4119 31.4936 59.7388 31.7388 59.9811C31.9841 60.2233 32.3158 60.3617 32.6632 60.3669C32.6736 60.3669 32.6847 60.3669 32.6951 60.3662C33.6169 60.3451 34.5524 60.2801 35.4769 60.1727C35.8278 60.1315 36.1478 59.955 36.3665 59.6817C36.5852 59.4085 36.6848 59.061 36.6434 58.7156C36.602 58.3701 36.4229 58.055 36.1456 57.8394C35.8683 57.6238 35.5154 57.5253 35.1644 57.5657L35.1641 57.5662ZM27.5757 57.388C26.7414 57.2508 25.9143 57.0742 25.0972 56.8589C24.7555 56.769 24.3915 56.8164 24.0853 56.9907C23.779 57.165 23.5557 57.4519 23.4644 57.7882C23.373 58.1246 23.4212 58.4829 23.5982 58.7844C23.7753 59.0858 24.0667 59.3056 24.4084 59.3955C25.308 59.6319 26.2186 59.8258 27.1369 59.9768C27.3096 60.0052 27.4863 59.9998 27.6569 59.9609C27.8275 59.922 27.9886 59.8505 28.1311 59.7503C28.2736 59.6502 28.3947 59.5234 28.4874 59.3772C28.5801 59.2309 28.6426 59.0682 28.6714 58.8982C28.7002 58.7282 28.6948 58.5542 28.6553 58.3863C28.6158 58.2184 28.5431 58.0598 28.4414 57.9195C28.3396 57.7793 28.2108 57.6601 28.0623 57.5688C27.9137 57.4776 27.7484 57.416 27.5757 57.3877V57.388ZM60.0248 30.8673C59.6713 30.8588 59.3289 30.9889 59.0728 31.2288C58.8167 31.4688 58.6678 31.799 58.6589 32.147C58.6374 32.9801 58.5763 33.8118 58.4759 34.6393C58.4342 34.985 58.5335 35.3328 58.7521 35.6064C58.9708 35.88 59.2908 36.057 59.6419 36.0985C59.6951 36.1043 59.7486 36.1073 59.8021 36.1075C60.1279 36.107 60.4424 35.9891 60.686 35.776C60.9296 35.5629 61.0855 35.2694 61.1243 34.9508C61.2342 34.0416 61.3009 33.1278 61.3243 32.2124C61.3288 32.0401 61.2987 31.8686 61.2358 31.7077C61.1729 31.5468 61.0784 31.3997 60.9577 31.2748C60.837 31.1499 60.6925 31.0496 60.5324 30.9797C60.3724 30.9097 60.1999 30.8716 60.0248 30.8673ZM55.9323 45.88C55.6397 45.6847 55.2803 45.6117 54.9331 45.6769C54.5858 45.7422 54.2791 45.9403 54.0801 46.2279C53.6043 46.917 53.0956 47.5836 52.5559 48.2255C52.4416 48.3579 52.3551 48.5113 52.3015 48.6768C52.2479 48.8424 52.2282 49.0168 52.2436 49.1898C52.259 49.3629 52.3092 49.5313 52.3912 49.6852C52.4733 49.839 52.5855 49.9753 52.7215 50.0861C52.8574 50.1969 53.0144 50.28 53.1833 50.3306C53.3521 50.3812 53.5295 50.3983 53.7051 50.3809C53.8808 50.3635 54.0511 50.3119 54.2063 50.2292C54.3615 50.1465 54.4985 50.0342 54.6093 49.8989C55.2031 49.1934 55.7625 48.4604 56.2857 47.7027C56.3841 47.5601 56.453 47.3999 56.4884 47.2312C56.5239 47.0625 56.5253 46.8885 56.4925 46.7193C56.4597 46.55 56.3933 46.3888 56.2972 46.2448C56.2011 46.1008 56.0771 45.9768 55.9323 45.88ZM57.7696 24.7287C57.9869 25.5334 58.1652 26.3478 58.3041 27.1691C58.3557 27.4755 58.5161 27.754 58.7566 27.955C58.9971 28.156 59.3023 28.2665 59.6178 28.2669C59.6913 28.2668 59.7647 28.2608 59.8372 28.249C60.0099 28.2208 60.1754 28.1593 60.324 28.0682C60.4727 27.977 60.6016 27.858 60.7035 27.7177C60.8053 27.5775 60.8781 27.4189 60.9177 27.251C60.9573 27.0831 60.9629 26.9091 60.9342 26.7391C60.7818 25.8351 60.5858 24.9388 60.3467 24.0532C60.2557 23.7168 60.0327 23.4298 59.7267 23.2553C59.4207 23.0808 59.0568 23.0331 58.7151 23.1227C58.3734 23.2122 58.0818 23.4318 57.9046 23.733C57.7273 24.0342 57.6788 24.3924 57.7698 24.7287H57.7696ZM48.9688 51.7522C48.3169 52.2831 47.6397 52.7831 46.9396 53.2506C46.7946 53.3473 46.6705 53.4711 46.5742 53.6151C46.4779 53.759 46.4114 53.9202 46.3784 54.0894C46.3454 54.2587 46.3465 54.4327 46.3818 54.6015C46.4171 54.7703 46.4859 54.9306 46.5841 55.0732C46.6824 55.2159 46.8082 55.3381 46.9544 55.4328C47.1006 55.5276 47.2644 55.5931 47.4363 55.6256C47.6082 55.6581 47.785 55.657 47.9564 55.6222C48.1279 55.5875 48.2908 55.5198 48.4357 55.4231C49.2058 54.9091 49.9507 54.3595 50.6681 53.7761C50.9407 53.5543 51.1127 53.235 51.1461 52.8883C51.1796 52.5417 51.0718 52.1962 50.8464 51.9278C50.6211 51.6594 50.2967 51.4902 49.9446 51.4572C49.5924 51.4243 49.2414 51.5304 48.9688 51.7522ZM59.0736 38.6632C58.7367 38.5578 58.3711 38.5884 58.0571 38.748C57.7431 38.9077 57.5063 39.1835 57.3986 39.5149C57.1412 40.3078 56.8455 41.0882 56.5124 41.8534C56.4397 42.0123 56.3999 42.1839 56.3953 42.3582C56.3907 42.5325 56.4214 42.7059 56.4856 42.8684C56.5499 43.0308 56.6464 43.179 56.7694 43.3044C56.8925 43.4297 57.0397 43.5296 57.2025 43.5984C57.3652 43.6671 57.5403 43.7032 57.7174 43.7046C57.8945 43.7059 58.07 43.6726 58.2339 43.6064C58.3977 43.5403 58.5465 43.4426 58.6716 43.3192C58.7967 43.1958 58.8956 43.0491 58.9624 42.8877C59.3299 42.0452 59.6555 41.1857 59.9383 40.3121C59.9916 40.1479 60.0115 39.975 59.9969 39.8033C59.9823 39.6316 59.9334 39.4644 59.8531 39.3112C59.7728 39.1581 59.6626 39.022 59.5288 38.9108C59.3951 38.7996 59.2404 38.7155 59.0736 38.6632ZM42.4928 55.6397C41.7153 55.967 40.9223 56.2577 40.1166 56.5106C39.9498 56.5629 39.7951 56.6471 39.6613 56.7583C39.5275 56.8695 39.4173 57.0055 39.337 57.1587C39.2567 57.3118 39.2077 57.479 39.193 57.6507C39.1783 57.8224 39.1981 57.9953 39.2513 58.1595C39.3045 58.3237 39.39 58.476 39.503 58.6077C39.6159 58.7393 39.7541 58.8478 39.9097 58.9269C40.0652 59.006 40.2351 59.0541 40.4095 59.0686C40.584 59.0831 40.7596 59.0636 40.9264 59.0113C41.8134 58.7331 42.6863 58.4134 43.5423 58.0532C43.8674 57.9162 44.124 57.6576 44.2554 57.3343C44.3869 57.0111 44.3825 56.6497 44.2432 56.3296C44.104 56.0096 43.8413 55.7571 43.5129 55.6277C43.1846 55.4983 42.8174 55.5026 42.4923 55.6397H42.4928Z" fill="#B18B5E"></path>
                           <path d="M20.7253 28.8186C20.7253 26.6675 19.2885 24.9439 17.0646 24.4271C15.8429 24.1422 14.5592 24.2734 13.423 24.7993C12.2868 25.3252 11.3652 26.2146 10.8087 27.3225C10.6529 27.6336 10.6285 27.9927 10.7408 28.3215C10.8532 28.6503 11.0932 28.9219 11.4084 29.077C11.7235 29.2322 12.0883 29.2582 12.4229 29.1494C12.7575 29.0407 13.0347 28.8059 13.1941 28.4966C13.4788 27.915 13.9576 27.4473 14.5506 27.1716C15.1436 26.8959 15.8147 26.8289 16.4518 26.9819C16.8288 27.0694 18.0586 27.4609 18.0586 28.8186C18.0586 30.1875 16.4525 31.2433 14.752 32.3614C12.8372 33.6194 10.668 35.0452 10.668 37.4063C10.668 37.7544 10.8084 38.0882 11.0585 38.3344C11.3086 38.5805 11.6477 38.7188 12.0013 38.7188H19.392C19.5681 38.7205 19.7429 38.6878 19.9062 38.6226C20.0694 38.5574 20.218 38.461 20.3431 38.3389C20.4683 38.2169 20.5677 38.0716 20.6355 37.9115C20.7033 37.7515 20.7383 37.5798 20.7383 37.4063C20.7383 37.2329 20.7033 37.0612 20.6355 36.9011C20.5677 36.741 20.4683 36.5958 20.3431 36.4737C20.218 36.3517 20.0694 36.2553 19.9062 36.1901C19.7429 36.1249 19.5681 36.0922 19.392 36.0939H14.1095C14.6681 35.5729 15.4577 35.0537 16.2325 34.5442C18.3388 33.1599 20.7253 31.5911 20.7253 28.8186ZM33.3347 33.1406C33.3347 32.7925 33.1942 32.4587 32.9441 32.2126C32.6941 31.9665 32.355 31.8282 32.0013 31.8282H30.918V24.8555C30.9179 24.5837 30.8321 24.3186 30.6725 24.0968C30.5128 23.875 30.2872 23.7075 30.0266 23.6173C29.7661 23.5272 29.4836 23.5189 29.2181 23.5936C28.9526 23.6683 28.7171 23.8223 28.5443 24.0343L21.7943 32.3198C21.6373 32.5128 21.5389 32.7455 21.5103 32.9912C21.4818 33.2369 21.5243 33.4856 21.633 33.7085C21.7418 33.9314 21.9122 34.1196 22.1248 34.2513C22.3374 34.3831 22.5835 34.453 22.8347 34.4531H28.2513V38.1445C28.2496 38.318 28.2829 38.49 28.3491 38.6507C28.4153 38.8114 28.5133 38.9576 28.6373 39.0809C28.7612 39.2041 28.9088 39.3019 29.0714 39.3687C29.234 39.4354 29.4085 39.4698 29.5847 39.4698C29.7608 39.4698 29.9353 39.4354 30.0979 39.3687C30.2605 39.3019 30.4081 39.2041 30.532 39.0809C30.656 38.9576 30.754 38.8114 30.8202 38.6507C30.8864 38.49 30.9197 38.318 30.918 38.1445V34.4531H32.0013C32.355 34.4531 32.6941 34.3149 32.9442 34.0687C33.1942 33.8226 33.3347 33.4887 33.3347 33.1406ZM28.2513 31.8282H25.6138L28.2513 28.5898V31.8282ZM40.1588 22.8304C39.9871 22.7962 39.8102 22.7958 39.6383 22.8291C39.4664 22.8624 39.3029 22.9288 39.1571 23.0244C39.0114 23.1201 38.8862 23.2431 38.7889 23.3865C38.6915 23.5299 38.6239 23.6908 38.5898 23.8599L35.5898 38.6255C35.5204 38.9668 35.5916 39.3213 35.7877 39.611C35.9838 39.9006 36.2887 40.1017 36.6355 40.17C36.7219 40.187 36.8098 40.1955 36.898 40.1956C37.2059 40.1953 37.5043 40.09 37.7423 39.8977C37.9804 39.7055 38.1435 39.438 38.204 39.1407L41.204 24.3751C41.2384 24.2061 41.2388 24.0321 41.2049 23.863C41.171 23.6939 41.1036 23.533 41.0066 23.3896C40.9095 23.2461 40.7847 23.1229 40.6392 23.027C40.4938 22.931 40.3305 22.8642 40.1588 22.8304ZM47.0007 38.7194C47.264 38.7193 47.5214 38.6425 47.7405 38.4987C47.9595 38.3548 48.1305 38.1505 48.2318 37.9113L53.2318 26.0988C53.3164 25.8993 53.3496 25.6824 53.3285 25.4673C53.3074 25.2522 53.2327 25.0456 53.1109 24.8657C52.9892 24.6859 52.8242 24.5384 52.6306 24.4365C52.437 24.3345 52.2209 24.2812 52.0013 24.2812H45.2513C44.9 24.2846 44.5641 24.4243 44.3169 24.6701C44.0696 24.9159 43.9309 25.2478 43.9309 25.5937C43.9309 25.9396 44.0696 26.2715 44.3169 26.5173C44.5641 26.7631 44.9 26.9028 45.2513 26.9062H50.0013L45.7708 36.9018C45.6867 37.1012 45.6538 37.318 45.675 37.5329C45.6963 37.7479 45.771 37.9544 45.8926 38.1341C46.0142 38.3139 46.1789 38.4614 46.3722 38.5635C46.5654 38.6657 46.7813 38.7194 47.0007 38.7199V38.7194Z" fill="#B18B5E"></path>
                        </svg>