<svg width="56" height="57" viewBox="0 0 56 57" fill="none" xmlns="http://www.w3.org/2000/svg">
                           <g clip-path="url(#clip0_210_11)">
                              <path d="M27.0559 20.226C27.4206 20.5671 28.0273 20.4981 28.3046 20.0864L33.7644 11.9753C33.8239 11.8868 33.8652 11.7877 33.8858 11.6836C33.9064 11.5795 33.906 11.4724 33.8846 11.3684C33.8631 11.2644 33.8211 11.1656 33.7609 11.0777C33.7007 10.9897 33.6234 10.9142 33.5336 10.8556C33.1565 10.6096 32.6471 10.7114 32.3968 11.0828L27.4766 18.3923L24.7427 15.8369C24.5848 15.6895 24.374 15.6098 24.1564 15.6154C23.9389 15.621 23.7325 15.7114 23.5827 15.8667C23.5085 15.9436 23.4505 16.0342 23.4119 16.1332C23.3733 16.2322 23.3549 16.3377 23.3577 16.4437C23.3605 16.5497 23.3845 16.6541 23.4284 16.7509C23.4722 16.8478 23.5349 16.9352 23.6131 17.0082C23.6126 17.0082 27.0528 20.2234 27.0558 20.226H27.0559Z" fill="#B18B5E"></path>
                              <path d="M27.6148 32.5425C27.7726 32.6134 27.944 32.6503 28.1176 32.6506H28.1245C28.3005 32.6496 28.4742 32.6106 28.6333 32.5362C41.1072 26.6965 43.2212 14.0971 43.5715 10.3747C43.6519 9.52468 43.1657 8.73323 42.362 8.40517C39.8788 7.39032 38.1908 5.12093 37.9566 2.48269C37.8844 1.67057 37.1795 1.0376 36.3489 1.0376H36.3391L19.5338 1.13471C18.6866 1.13934 17.9982 1.77317 17.9333 2.60887C17.7266 5.24787 16.0632 7.53373 13.5925 8.57421C12.797 8.90905 12.3227 9.7047 12.4134 10.5542C12.8081 14.2725 15.0721 26.8472 27.6148 32.5425ZM14.2377 10.0589C17.2673 8.78373 19.3083 5.98398 19.5675 2.74949L36.3246 2.65259C36.6224 5.88009 38.6925 8.6541 41.7332 9.89645C41.8691 9.95244 41.9515 10.0844 41.9383 10.2258C41.6093 13.7144 39.641 25.4773 28.1147 30.9897C16.5223 25.6115 14.4155 13.8713 14.0447 10.3864C14.037 10.3187 14.0515 10.2502 14.0863 10.1913C14.1211 10.1323 14.1742 10.0858 14.2378 10.0588L14.2377 10.0589Z" fill="#B18B5E"></path>
                              <path d="M16.2861 14.5354C16.3853 14.8945 16.8479 15.2233 17.2931 15.1028C17.7298 14.9841 17.9883 14.5421 17.8695 14.1119C17.6613 13.3573 17.487 12.5941 17.347 11.8244C19.573 10.3981 21.2309 8.25944 22.0407 5.76941L33.8874 5.70094C34.7268 8.1814 36.41 10.3007 38.6528 11.7012C38.5224 12.473 38.357 13.2388 38.1574 13.9962C38.1028 14.2035 38.1341 14.4237 38.2445 14.6083C38.3549 14.7929 38.5352 14.9268 38.7459 14.9805C38.9565 15.0342 39.1802 15.0034 39.3677 14.8947C39.5552 14.7861 39.6912 14.6086 39.7458 14.4012C39.9799 13.5126 40.1695 12.6132 40.314 11.7062C40.3535 11.4632 40.3183 11.2142 40.2129 10.991C40.1076 10.7678 39.9369 10.5807 39.7227 10.4537C37.6334 9.21326 36.083 7.25699 35.3691 4.96031C35.208 4.4434 34.7128 4.08423 34.1634 4.08423H34.1558L21.7526 4.15572C21.1999 4.15906 20.7052 4.52544 20.5501 5.04612C19.8621 7.35286 18.339 9.32153 16.2622 10.5896C15.8269 10.855 15.6008 11.3491 15.6858 11.8488C15.8413 12.7534 16.0416 13.65 16.2861 14.5354ZM38.0877 16.9296C37.6689 16.759 37.1896 16.9558 37.0166 17.3678C35.1209 21.8908 32.1199 25.3293 28.0943 27.5924C24.0376 25.373 20.9931 21.9634 19.044 17.4549C18.9586 17.258 18.7972 17.1025 18.5955 17.0226C18.3937 16.9426 18.1679 16.9448 17.9677 17.0286C17.8686 17.0701 17.7788 17.1304 17.7034 17.2061C17.628 17.2817 17.5684 17.3713 17.5282 17.4696C17.4879 17.568 17.4677 17.6731 17.4687 17.7791C17.4698 17.8851 17.492 17.9899 17.5342 18.0875C19.6614 23.0074 23.0128 26.7164 27.4949 29.1106C27.6817 29.2111 27.8914 29.2632 28.1042 29.2621C28.3171 29.2609 28.5261 29.2065 28.7117 29.1039C33.1602 26.6608 36.4646 22.9194 38.5333 17.9837C38.5744 17.8857 38.5956 17.7807 38.5954 17.6746C38.5953 17.5686 38.5739 17.4636 38.5326 17.3657C38.4912 17.2678 38.4306 17.1789 38.3542 17.1041C38.2779 17.0292 38.1873 16.97 38.0877 16.9296ZM5.26359 42.3569C3.66355 42.3569 2.36133 43.6384 2.36133 45.2139C2.36133 46.7893 3.66355 48.0708 5.26359 48.0708C6.86408 48.0708 8.16641 46.7893 8.16641 45.2139C8.16641 43.6384 6.86452 42.3569 5.26359 42.3569ZM5.26359 46.4557C4.56797 46.4557 4.00195 45.899 4.00195 45.2139C4.00195 44.5291 4.56808 43.9719 5.26359 43.9719C5.95955 43.9719 6.52578 44.5291 6.52578 45.2139C6.52578 45.899 5.95955 46.4558 5.26359 46.4558V46.4557Z" fill="#B18B5E"></path>
                              <path d="M55.4117 34.4513C54.3602 32.9305 52.2432 32.5275 50.6928 33.5529L39.9689 40.6181L37.6797 40.4914L37.6212 39.9144C37.5126 38.819 37.0327 37.7914 36.2587 36.9972C35.4846 36.203 34.4616 35.6884 33.3542 35.5363C33.3399 35.5342 33.3256 35.5325 33.3111 35.5313L21.7558 34.5344C21.3649 34.4743 20.1135 34.1205 16.675 32.1792C14.8878 31.1703 12.8742 30.6008 10.8286 30.5234V28.411C10.8286 27.3506 9.95269 26.4885 8.87556 26.4885H1.95289C0.876312 26.4885 0 27.3511 0 28.411V49.217C0 50.2769 0.876312 51.1395 1.95289 51.1395H8.87556C9.95225 51.1395 10.8286 50.2769 10.8286 49.217V48.6438L20.9295 52.4092C20.9518 52.4176 21.7721 52.7195 23.2803 52.5795C23.2845 52.5791 40.0637 50.1978 40.0637 50.1978C40.068 50.1974 40.0718 50.1966 40.0761 50.1957C41.5113 49.9698 42.8605 49.3748 43.9871 48.4709C43.9974 48.4625 44.0073 48.4541 44.017 48.4457L54.8567 38.8487C56.1342 37.7322 56.373 35.8416 55.4117 34.4513ZM53.7634 37.6446L42.9353 47.2315C42.0373 47.9476 40.9643 48.4195 39.8232 48.6L23.0521 50.98C23.0472 50.9806 23.0424 50.9814 23.0375 50.9822L23.0295 50.9834C22.5279 51.0612 22.0053 51.0284 21.476 50.8858L10.8286 46.917V37.6953C10.8286 37.4811 10.7421 37.2757 10.5883 37.1243C10.4345 36.9728 10.2258 36.8878 10.0082 36.8878C9.90051 36.8877 9.79382 36.9086 9.69428 36.9491C9.59473 36.9897 9.50429 37.0492 9.42811 37.1242C9.35192 37.1992 9.2915 37.2882 9.25029 37.3862C9.20908 37.4842 9.18789 37.5892 9.18794 37.6953V49.2171C9.18782 49.2986 9.15487 49.3768 9.09632 49.4344C9.03776 49.4921 8.95837 49.5245 8.87556 49.5246H1.95289C1.87008 49.5245 1.7907 49.492 1.73217 49.4343C1.67363 49.3767 1.64071 49.2985 1.64062 49.217V28.411C1.64077 28.3295 1.67372 28.2514 1.73225 28.1938C1.79078 28.1362 1.87012 28.1038 1.95289 28.1036H8.87556C8.95835 28.1037 9.03773 28.1362 9.09628 28.1938C9.15483 28.2514 9.18779 28.3295 9.18794 28.411V34.0475C9.18794 34.2617 9.27436 34.4671 9.4282 34.6185C9.58204 34.77 9.79069 34.855 10.0082 34.855C10.2258 34.855 10.4345 34.77 10.5883 34.6185C10.7421 34.4671 10.8286 34.2617 10.8286 34.0475V32.1402C12.5884 32.2167 14.3196 32.7113 15.8585 33.5807C20.0058 35.922 21.1641 36.0835 21.5447 36.1365C21.5592 36.1386 21.5733 36.1398 21.5879 36.1415L33.1445 37.1383C33.8837 37.2444 34.5654 37.5913 35.0809 38.1235C35.5965 38.6556 35.916 39.3425 35.9886 40.0743L36.0323 40.5045L20.5603 41.4449C20.3085 41.4275 20.0628 41.36 19.8382 41.2466C19.6136 41.1332 19.4146 40.9762 19.2533 40.785C19.1843 40.7036 19.0998 40.6363 19.0044 40.587C18.909 40.5377 18.8047 40.5074 18.6974 40.4978C18.5901 40.4883 18.482 40.4996 18.3792 40.5312C18.2764 40.5628 18.1809 40.6141 18.0982 40.682C18.0154 40.7499 17.947 40.8331 17.8969 40.927C17.8469 41.0209 17.8161 41.1236 17.8064 41.2292C17.7966 41.3349 17.8082 41.4413 17.8403 41.5425C17.8724 41.6438 17.9244 41.7378 17.9935 41.8192C18.5955 42.53 19.4449 42.9552 20.3835 43.0511C20.8902 43.1032 36.9346 42.0678 36.9346 42.0678L40.1509 42.2456C40.3288 42.2555 40.505 42.208 40.6529 42.1102L51.6066 34.8941C52.4112 34.3621 53.5095 34.5707 54.0552 35.3597C54.5537 36.0813 54.4299 37.0622 53.7634 37.6446Z" fill="#B18B5E"></path>
                           </g>
                           <defs>
                              <clipPath id="clip0_210_11">
                                 <rect width="56" height="55.1249" fill="white" transform="translate(0 0.929932)"></rect>
                              </clipPath>
                           </defs>
                        </svg>